<svg class="svg-icon" style="width: 1em; height: 1em;vertical-align: middle;fill: currentColor;overflow: hidden;" viewBox="0 0 1024 1024" version="1.1" xmlns="http://www.w3.org/2000/svg"><path d="M128 896l128 0 0-192-128 0 0 192zM256 128l-128 0 0 320 128 0 0-320zM576 128l-128 0 0 128 128 0 0-128zM64 640l256 0 0-128-256 0 0 128zM448 896l128 0 0-384-128 0 0 384zM384 448l256 0 0-128-256 0 0 128zM896 128l-128 0 0 384 128 0 0-384zM704 576l0 128 256 0 0-128-256 0zM768 896l128 0 0-128-128 0 0 128z"  /></svg>